<?xml version="1.0" encoding="UTF-8" standalone="no"?>
<svg
   width="20"
   height="20"
   viewBox="0 0 20 20"
   fill="none"
   version="1.1"
   id="svg1"
   sodipodi:docname="calendar.svg"
   inkscape:version="1.4.3 (0d15f75, 2025-12-25)"
   xmlns:inkscape="http://www.inkscape.org/namespaces/inkscape"
   xmlns:sodipodi="http://sodipodi.sourceforge.net/DTD/sodipodi-0.dtd"
   xmlns="http://www.w3.org/2000/svg"
   xmlns:svg="http://www.w3.org/2000/svg">
  <defs
     id="defs1" />
  <sodipodi:namedview
     id="namedview1"
     pagecolor="#ffffff"
     bordercolor="#000000"
     borderopacity="0.25"
     inkscape:showpageshadow="2"
     inkscape:pageopacity="0.0"
     inkscape:pagecheckerboard="0"
     inkscape:deskcolor="#d1d1d1"
     inkscape:zoom="42.75"
     inkscape:cx="10"
     inkscape:cy="10"
     inkscape:window-width="1920"
     inkscape:window-height="1057"
     inkscape:window-x="-8"
     inkscape:window-y="-8"
     inkscape:window-maximized="1"
     inkscape:current-layer="svg1" />
  <path
     style="baseline-shift:baseline;display:inline;overflow:visible;vector-effect:none;fill:#f3e2a5;stroke-linecap:round;stroke-linejoin:round;enable-background:accumulate;stop-color:#000000;stop-opacity:1;opacity:1"
     d="m 5.8339844,1.75 a 0.75,0.75 0 0 0 -0.75,0.75 V 3.4257813 C 4.2137248,3.4234476 3.6395674,3.3896472 3.0703125,3.6796875 2.6156637,3.9113393 2.2453174,4.2816777 2.0136719,4.7363281 1.7118074,5.3287576 1.75,5.9005644 1.75,6.8339844 V 7.5 14.833984 c 0,0.9335 -0.038206,1.503281 0.2636719,2.095703 0.2316368,0.454634 0.6018263,0.825035 1.0566406,1.056641 C 3.6627618,18.288269 4.2325956,18.25 5.1660156,18.25 h 9.6679684 c 0.9335,0 1.503261,0.03828 2.095703,-0.263672 0.454785,-0.231598 0.825043,-0.601856 1.056641,-1.056641 C 18.288283,16.337245 18.25,15.767484 18.25,14.833984 V 7.5 6.8339844 c 0,-0.93342 0.03827,-1.505207 -0.263672,-2.0976563 C 17.754722,4.2815268 17.384306,3.9113313 16.929687,3.6796875 16.360439,3.3896343 15.786346,3.4234472 14.916016,3.4257813 V 2.5 a 0.75,0.75 0 0 0 -0.75,-0.75 0.75,0.75 0 0 0 -0.75,0.75 V 3.4160156 H 6.5839844 V 2.5 a 0.75,0.75 0 0 0 -0.75,-0.75 z M 5.1660156,4.9160156 h 0.6679688 8.3320316 0.667968 c 0.9335,0 1.295434,0.038168 1.416016,0.099609 0.172581,0.087936 0.312597,0.2299451 0.400391,0.4023437 0.05781,0.1134388 0.08951,0.5166297 0.09375,1.3320313 H 3.2558594 C 3.2600992,5.9345942 3.2917987,5.5314261 3.3496094,5.4179687 3.4375238,5.2454192 3.5774288,5.1035532 3.75,5.015625 3.8706155,4.9541704 4.2325956,4.9160156 5.1660156,4.9160156 Z M 3.25,8.25 h 13.5 v 6.583984 c 0,0.9335 -0.03816,1.295459 -0.09961,1.416016 -0.0878,0.172416 -0.227975,0.312588 -0.400391,0.400391 C 16.129443,16.711836 15.767484,16.75 14.833984,16.75 H 5.1660156 C 4.2325956,16.75 3.8705907,16.71185 3.75,16.650391 3.5775943,16.562596 3.4375326,16.422567 3.3496094,16.25 3.2881674,16.129423 3.25,15.767484 3.25,14.833984 Z M 5,10.083984 a 0.75,0.75 0 0 0 -0.75,0.75 0.75,0.75 0 0 0 0.75,0.75 h 1.6660156 a 0.75,0.75 0 0 0 0.75,-0.75 0.75,0.75 0 0 0 -0.75,-0.75 z m 4.1660156,0 a 0.75,0.75 0 0 0 -0.75,0.75 0.75,0.75 0 0 0 0.75,0.75 h 1.6679684 a 0.75,0.75 0 0 0 0.75,-0.75 0.75,0.75 0 0 0 -0.75,-0.75 z m 4.1679684,0 a 0.75,0.75 0 0 0 -0.75,0.75 0.75,0.75 0 0 0 0.75,0.75 H 15 a 0.75,0.75 0 0 0 0.75,-0.75 0.75,0.75 0 0 0 -0.75,-0.75 z M 5,13.416016 a 0.75,0.75 0 0 0 -0.75,0.75 0.75,0.75 0 0 0 0.75,0.75 h 1.6660156 a 0.75,0.75 0 0 0 0.75,-0.75 0.75,0.75 0 0 0 -0.75,-0.75 z m 4.1660156,0 a 0.75,0.75 0 0 0 -0.75,0.75 0.75,0.75 0 0 0 0.75,0.75 h 1.6679684 a 0.75,0.75 0 0 0 0.75,-0.75 0.75,0.75 0 0 0 -0.75,-0.75 z m 4.1679684,0 a 0.75,0.75 0 0 0 -0.75,0.75 0.75,0.75 0 0 0 0.75,0.75 H 15 a 0.75,0.75 0 0 0 0.75,-0.75 0.75,0.75 0 0 0 -0.75,-0.75 z"
     id="path1" />
</svg>
