<?xml version="1.0" encoding="UTF-8" standalone="no"?>
<svg
   width="20"
   height="20"
   viewBox="0 0 20 20"
   fill="none"
   version="1.1"
   id="svg2"
   sodipodi:docname="eye.svg"
   inkscape:version="1.4.3 (0d15f75, 2025-12-25)"
   xmlns:inkscape="http://www.inkscape.org/namespaces/inkscape"
   xmlns:sodipodi="http://sodipodi.sourceforge.net/DTD/sodipodi-0.dtd"
   xmlns="http://www.w3.org/2000/svg"
   xmlns:svg="http://www.w3.org/2000/svg">
  <defs
     id="defs2" />
  <sodipodi:namedview
     id="namedview2"
     pagecolor="#ffffff"
     bordercolor="#000000"
     borderopacity="0.25"
     inkscape:showpageshadow="2"
     inkscape:pageopacity="0.0"
     inkscape:pagecheckerboard="0"
     inkscape:deskcolor="#d1d1d1"
     inkscape:zoom="41.65"
     inkscape:cx="10.012005"
     inkscape:cy="10"
     inkscape:window-width="1920"
     inkscape:window-height="1051"
     inkscape:window-x="-9"
     inkscape:window-y="-9"
     inkscape:window-maximized="1"
     inkscape:current-layer="svg2" />
  <path
     d="M12.5 10.0001C12.5 11.3808 11.3808 12.5001 10 12.5001C8.61933 12.5001 7.50004 11.3808 7.50004 10.0001C7.50004 8.61937 8.61933 7.50008 10 7.50008C11.3808 7.50008 12.5 8.61937 12.5 10.0001Z"
     stroke="#F3E2A5"
     stroke-width="1.5"
     stroke-linecap="round"
     stroke-linejoin="round"
     id="path1" />
  <path
     style="baseline-shift:baseline;display:inline;overflow:visible;vector-effect:none;fill:#f3e2a5;stroke-linecap:round;stroke-linejoin:round;enable-background:accumulate;stop-color:#000000;stop-opacity:1;opacity:1"
     d="m 10,3.4160156 c -4.059971,0 -7.5077817,2.6717105 -8.6660156,6.359375 a 0.750075,0.750075 0 0 0 0,0.4492184 C 2.4922003,13.912232 5.940029,16.583984 10,16.583984 c 4.060017,0 7.509736,-2.671767 8.667969,-6.359375 a 0.750075,0.750075 0 0 0 0,-0.4492184 C 17.509837,6.0877353 14.060021,3.4160156 10,3.4160156 Z m 0,1.5 c 3.313018,0 6.088201,2.1349997 7.125,5.0839844 C 16.088114,12.94899 13.313022,15.083984 10,15.083984 6.6869977,15.083984 3.9118444,12.949023 2.875,10 3.9118636,7.050924 6.6869977,4.9160156 10,4.9160156 Z"
     id="path2" />
</svg>
