<?xml version="1.0" encoding="UTF-8" standalone="no"?>
<svg
   width="20"
   height="20"
   viewBox="0 0 20 20"
   fill="none"
   version="1.1"
   id="svg1"
   sodipodi:docname="phone.svg"
   inkscape:version="1.4.3 (0d15f75, 2025-12-25)"
   xmlns:inkscape="http://www.inkscape.org/namespaces/inkscape"
   xmlns:sodipodi="http://sodipodi.sourceforge.net/DTD/sodipodi-0.dtd"
   xmlns="http://www.w3.org/2000/svg"
   xmlns:svg="http://www.w3.org/2000/svg">
  <defs
     id="defs1" />
  <sodipodi:namedview
     id="namedview1"
     pagecolor="#ffffff"
     bordercolor="#000000"
     borderopacity="0.25"
     inkscape:showpageshadow="2"
     inkscape:pageopacity="0.0"
     inkscape:pagecheckerboard="0"
     inkscape:deskcolor="#d1d1d1"
     inkscape:zoom="42.75"
     inkscape:cx="10"
     inkscape:cy="10"
     inkscape:window-width="1920"
     inkscape:window-height="1057"
     inkscape:window-x="-8"
     inkscape:window-y="-8"
     inkscape:window-maximized="1"
     inkscape:current-layer="svg1" />
  <path
     style="baseline-shift:baseline;display:inline;overflow:visible;vector-effect:none;fill:#ffffff;stroke-linecap:round;stroke-linejoin:round;enable-background:accumulate;stop-color:#000000;stop-opacity:1;opacity:1"
     d="M 3.8007813,1.75 C 3.4006713,1.75 3.0821139,1.7244472 2.7050781,1.90625 2.4025382,2.0521319 2.1870972,2.2519533 2.0195313,2.5429688 1.8210798,2.8876531 1.8136598,3.2096693 1.7871094,3.5722656 1.7626354,3.9064191 1.75,4.2438495 1.75,4.5839844 1.75,12.122985 7.8769766,18.25 15.416016,18.25 c 0.340134,0 0.677625,-0.01269 1.011718,-0.03711 0.362474,-0.02659 0.684543,-0.03384 1.029297,-0.232422 0.291555,-0.167639 0.490912,-0.383078 0.636719,-0.685547 C 18.275588,16.917834 18.25,16.599319 18.25,16.199219 v -2.347656 c 0,-0.336501 0.01983,-0.591614 -0.105469,-0.917969 -0.09284,-0.241687 -0.243529,-0.458662 -0.439453,-0.628906 -0.26383,-0.229015 -0.509972,-0.29711 -0.826172,-0.41211 L 14.207031,10.919922 C 13.839167,10.786235 13.5747,10.661667 13.175781,10.6875 c -0.292646,0.01901 -0.573748,0.119962 -0.8125,0.289063 a 0.750075,0.750075 0 0 0 -0.002,0 c -0.325993,0.231188 -0.45288,0.494349 -0.654297,0.830078 l -0.277343,0.464843 C 9.861352,11.417131 8.5837934,10.138981 7.7285156,8.5703125 L 8.1933594,8.2929688 C 8.5290569,8.0915542 8.7922029,7.9648786 9.0234375,7.6386719 9.192835,7.3996767 9.2934844,7.1165761 9.3125,6.8242187 9.3384744,6.4251823 9.2138581,6.1608687 9.0800781,5.7929687 L 8.1074219,3.1210938 C 7.9924351,2.8048927 7.9246813,2.5588782 7.6953125,2.2949219 7.5252671,2.0992082 7.308455,1.9483934 7.0664062,1.8554687 6.739976,1.7301206 6.4868606,1.75 6.1503906,1.75 Z m 0,1.5 h 2.3496093 c 0.33647,0 0.4168965,0.020447 0.3789063,0.00586 0.012751,0.0049 0.024248,0.013131 0.033203,0.023437 -0.026709,-0.030736 0.019772,0.03925 0.1347656,0.3554687 l 0.9726563,2.671875 c 0.13378,0.3679 0.1412768,0.4718715 0.1445312,0.421875 -9.629e-4,0.014805 -0.00538,0.028732 -0.013672,0.041016 0.028955,-0.040847 -0.043224,0.034923 -0.3789062,0.2363282 L 6.28125,7.6894531 a 0.750075,0.750075 0 0 0 -0.296875,0.953125 c 1.0773961,2.3744599 2.9967324,4.2969389 5.373047,5.3730469 a 0.750075,0.750075 0 0 0 0.953125,-0.296875 l 0.683594,-1.140625 c 0.201383,-0.335672 0.276921,-0.407694 0.236328,-0.378906 0.01248,-0.0084 0.02649,-0.01273 0.04101,-0.01367 -0.04992,0.0032 0.05394,0.01082 0.421875,0.144531 l 2.671875,0.972656 c 0.3162,0.115 0.3859,0.161181 0.355469,0.134766 0.01008,0.0088 0.01848,0.02029 0.02344,0.0332 -0.0145,-0.03776 0.0059,0.04436 0.0059,0.38086 v 2.347656 c 0,0.4001 -0.02425,0.4794 -0.0078,0.445312 0.0088,-0.01827 -0.05136,0.04559 -0.0332,0.03516 0.01455,-0.0084 -0.0279,0.0105 -0.390625,0.03711 C 16.020452,16.738574 15.719481,16.75 15.416016,16.75 8.6876347,16.75 3.25,11.312324 3.25,4.5839844 3.25,4.2804193 3.2613971,3.9793672 3.2832031,3.6816406 3.3097527,3.319057 3.328744,3.2763713 3.3203125,3.2910156 3.3101466,3.308671 3.3738887,3.2489306 3.3554688,3.2578125 3.321493,3.2741953 3.4006713,3.25 3.8007813,3.25 Z"
     id="path1" />
</svg>
