<?xml version="1.0" encoding="UTF-8" standalone="no"?>
<svg
   width="24"
   height="24"
   viewBox="0 0 24 24"
   fill="none"
   version="1.1"
   id="svg1"
   sodipodi:docname="search.svg"
   inkscape:version="1.4.3 (0d15f75, 2025-12-25)"
   xmlns:inkscape="http://www.inkscape.org/namespaces/inkscape"
   xmlns:sodipodi="http://sodipodi.sourceforge.net/DTD/sodipodi-0.dtd"
   xmlns="http://www.w3.org/2000/svg"
   xmlns:svg="http://www.w3.org/2000/svg">
  <defs
     id="defs1" />
  <sodipodi:namedview
     id="namedview1"
     pagecolor="#ffffff"
     bordercolor="#000000"
     borderopacity="0.25"
     inkscape:showpageshadow="2"
     inkscape:pageopacity="0.0"
     inkscape:pagecheckerboard="0"
     inkscape:deskcolor="#d1d1d1"
     inkscape:zoom="35.625"
     inkscape:cx="12"
     inkscape:cy="12"
     inkscape:window-width="1920"
     inkscape:window-height="1057"
     inkscape:window-x="-8"
     inkscape:window-y="-8"
     inkscape:window-maximized="1"
     inkscape:current-layer="svg1" />
  <path
     style="baseline-shift:baseline;display:inline;overflow:visible;vector-effect:none;fill:#ffffff;stroke-linecap:round;stroke-linejoin:round;enable-background:accumulate;stop-color:#000000;stop-opacity:1;opacity:1"
     d="M 10.5,2 C 5.8174212,2 2,5.8174212 2,10.5 c 0,4.682544 3.8174147,8.5 8.5,8.5 1.97161,0 3.707862,-0.784785 5.152344,-1.917969 l 4.642578,4.626953 a 1,1 0 0 0 1.414062,-0.0039 1,1 0 0 0 -0.0039,-1.414062 L 17.070312,15.669922 C 18.211376,14.222773 19,12.479194 19,10.5 19,5.8174147 15.182544,2 10.5,2 Z m 0,2 c 3.601656,0 6.5,2.8983053 6.5,6.5 0,1.803372 -0.726567,3.430289 -1.904297,4.605469 a 1,1 0 0 0 -0.0078,0 1,1 0 0 0 -0.0039,0.0078 C 13.910376,16.279282 12.293184,17 10.5,17 6.8983053,17 4,14.101656 4,10.5 4,6.8982988 6.8982988,4 10.5,4 Z"
     id="path1" />
</svg>
