<svg width="79" height="81" viewBox="0 0 79 81" fill="none" xmlns="http://www.w3.org/2000/svg">
<path fill-rule="evenodd" clip-rule="evenodd" d="M66.5733 13.1916C68.8194 13.1916 71.0264 15.2619 71.0264 17.551V38.352C70.9678 38.3598 70.9092 38.3716 70.8506 38.3794C69.6162 38.5903 68.4873 38.1255 67.7608 37.1021C67.4561 36.6724 67.1319 36.3013 66.7882 35.9888V16.1448C66.7882 14.8362 66.0147 13.7073 64.8976 13.1878H66.5734L66.5733 13.1916ZM48.6713 47.0586H13.8553L13.7264 45.8945C13.2459 41.5234 9.77329 38.0507 5.40219 37.5703L4.23809 37.4414V13.8594L5.40219 13.7305C9.77329 13.25 13.246 9.7774 13.7264 5.4063L13.8553 4.2422H55.0623C56.242 4.2422 57.2771 4.87501 57.8514 5.8125V4.457C57.8514 2.2109 55.7811 0 53.492 0L0 0.0117188V51.3007H45.477C45.7543 49.9569 46.5317 48.8437 47.8325 47.9218C48.1763 47.6757 48.4614 47.3867 48.6723 47.0624L48.6713 47.0586ZM46.5229 17.0666C47.0581 17.0666 47.4995 16.6291 47.4995 16.0901V11.3049C47.4995 10.7697 47.062 10.3283 46.5229 10.3283H24.5029C23.9677 10.3283 23.5263 10.7658 23.5263 11.3049V16.0901C23.5263 16.6252 23.9638 17.0666 24.5029 17.0666H46.5229ZM23.5269 39.8436C22.898 39.8436 22.3863 40.3553 22.3863 40.9842C22.3863 41.617 22.898 42.1248 23.5269 42.1248H43.0149C43.6438 42.1248 44.1555 41.6131 44.1555 40.9842C44.1555 40.3514 43.6438 39.8436 43.0149 39.8436H23.5269ZM61.6479 28.5386C61.6479 27.9097 61.1362 27.398 60.5073 27.398L10.5193 27.3941C9.89039 27.3941 9.3787 27.9058 9.3787 28.5347C9.3787 29.1675 9.89042 29.6753 10.5193 29.6753H60.5113C61.1402 29.6753 61.6519 29.1636 61.6519 28.5347L61.6479 28.5386ZM15.0819 22.3159C15.0819 22.9448 15.5936 23.4565 16.2225 23.4565H54.8005C55.4294 23.4565 55.9411 22.9448 55.9411 22.3159C55.9411 21.6831 55.4294 21.1753 54.8005 21.1753L16.2265 21.1714C15.5976 21.1714 15.0859 21.6831 15.0859 22.312L15.0819 22.3159ZM57.1639 34.7649C57.1639 34.136 56.6522 33.6243 56.0233 33.6243L10.5193 33.6165C9.89039 33.6165 9.3787 34.1282 9.3787 34.7571C9.3787 35.3899 9.89042 35.8977 10.5193 35.8977H56.0273C56.6562 35.8977 57.1679 35.386 57.1679 34.7571L57.1639 34.7649ZM60.1287 10.9129H66.5701C67.3982 10.9129 68.2068 11.0848 68.9646 11.3934L59.6482 2.07699C59.9568 2.8348 60.1287 3.64339 60.1287 4.47149L60.1287 10.9129ZM70.8517 66.5729C69.6173 66.362 68.4884 66.8346 67.7619 67.8502C67.2111 68.6237 66.5822 69.233 65.8517 69.651L69.5665 80.01L72.8751 76.0217L78.0704 76.4827L73.3516 66.5257C72.5743 66.7171 71.7383 66.721 70.8477 66.5725L70.8517 66.5729ZM58.6487 67.8502C58.051 67.0104 57.1721 66.5221 56.137 66.5221C55.9456 66.5221 55.7503 66.5377 55.5628 66.5729C54.6604 66.7252 53.8167 66.7174 53.0276 66.5182L48.3206 76.4557L53.5159 75.9948L56.8245 79.9831L60.5354 69.6351C59.8127 69.2171 59.1916 68.6159 58.6487 67.8502ZM65.9065 66.5299C65.1526 67.5885 64.3479 68.0416 63.2073 68.0416C62.0667 68.0416 61.262 67.5924 60.512 66.5299C59.4651 65.0572 57.8792 64.2408 56.137 64.2408C55.8206 64.2408 55.5042 64.2682 55.18 64.3229C53.8988 64.5416 53.0081 64.2877 52.2073 63.483C51.4026 62.6783 51.1526 61.7916 51.3674 60.5103C51.7268 58.4087 50.8987 56.4126 49.1604 55.1783C48.1018 54.4283 47.6487 53.6197 47.6487 52.483C47.6487 51.3463 48.1019 50.5377 49.1604 49.7877C50.8987 48.5533 51.7268 46.5611 51.3674 44.4557C51.1487 43.1745 51.4026 42.2877 52.2073 41.483C53.012 40.6783 53.9026 40.4283 55.18 40.6432C57.2816 40.9986 59.2777 40.1744 60.512 38.4323C61.262 37.3737 62.0706 36.9206 63.2073 36.9206C64.344 36.9206 65.1526 37.3737 65.9065 38.4323C67.1409 40.1706 69.1331 40.9987 71.2385 40.6432C72.5197 40.4244 73.4104 40.6744 74.2112 41.483C75.0159 42.2877 75.2659 43.1783 75.051 44.4557C74.6955 46.5612 75.5198 48.5534 77.258 49.7877C78.3166 50.5416 78.7697 51.3463 78.7697 52.483C78.7697 53.6197 78.3166 54.4283 77.258 55.1783C75.5197 56.4127 74.6916 58.4088 75.051 60.5103C75.2698 61.7876 75.0159 62.6783 74.2112 63.4869C73.4065 64.2916 72.5159 64.5416 71.2385 64.3268C69.1369 63.9713 67.1408 64.7955 65.9065 66.5338L65.9065 66.5299ZM71.2815 52.4789C71.2815 48.0336 67.6526 44.4047 63.2073 44.4047C58.762 44.4047 55.1331 48.0336 55.1331 52.4789C55.1331 56.9242 58.762 60.5531 63.2073 60.5531C67.6526 60.5531 71.2815 56.9242 71.2815 52.4789ZM65.5901 49.3617L61.8596 53.0922L61.008 51.6195C60.6916 51.0765 59.9963 50.889 59.4533 51.2055C58.9104 51.5219 58.7229 52.2172 59.0393 52.7602L60.6331 55.5219C61.0081 56.1664 61.8987 56.2875 62.4261 55.7562L67.2073 50.975C67.6526 50.5297 67.6526 49.807 67.2073 49.3617C66.762 48.9164 66.0393 48.9164 65.594 49.3617L65.5901 49.3617Z" fill="white"/>
</svg>
