<?xml version="1.0" encoding="UTF-8" standalone="no"?>
<svg
   width="20"
   height="20"
   viewBox="0 0 20 20"
   fill="none"
   version="1.1"
   id="svg1"
   sodipodi:docname="arrow.svg"
   inkscape:version="1.4.3 (0d15f75, 2025-12-25)"
   xmlns:inkscape="http://www.inkscape.org/namespaces/inkscape"
   xmlns:sodipodi="http://sodipodi.sourceforge.net/DTD/sodipodi-0.dtd"
   xmlns="http://www.w3.org/2000/svg"
   xmlns:svg="http://www.w3.org/2000/svg">
  <defs
     id="defs1" />
  <sodipodi:namedview
     id="namedview1"
     pagecolor="#ffffff"
     bordercolor="#000000"
     borderopacity="0.25"
     inkscape:showpageshadow="2"
     inkscape:pageopacity="0.0"
     inkscape:pagecheckerboard="0"
     inkscape:deskcolor="#d1d1d1"
     inkscape:zoom="42.75"
     inkscape:cx="10.011696"
     inkscape:cy="10"
     inkscape:window-width="1920"
     inkscape:window-height="1051"
     inkscape:window-x="-9"
     inkscape:window-y="-9"
     inkscape:window-maximized="1"
     inkscape:current-layer="svg1" />
  <path
     style="baseline-shift:baseline;display:inline;overflow:visible;opacity:1;vector-effect:none;fill:#ffffff;stroke-linecap:round;stroke-linejoin:round;enable-background:accumulate;stop-color:#000000;stop-opacity:1"
     d="m 10.38954,5.0921053 a 0.75,0.75 0 0 0 -0.5312504,0.21875 0.75,0.75 0 0 0 0,1.0625 L 13.57704,10.092105 H 3.7215712 a 0.75,0.75 0 0 0 -0.75,0.75 0.75,0.75 0 0 0 0.75,0.75 H 13.57704 l -3.7187504,3.71875 a 0.75,0.75 0 0 0 0,1.0625 0.75,0.75 0 0 0 1.0605474,0 l 5,-5 a 0.75,0.75 0 0 0 0.220703,-0.53125 0.75,0.75 0 0 0 -0.220703,-0.53125 l -5,-4.9999997 a 0.75,0.75 0 0 0 -0.529297,-0.21875 z"
     id="path1" />
</svg>
