<?xml version="1.0" encoding="UTF-8" standalone="no"?>
<svg
   width="44"
   height="44"
   viewBox="0 0 44 44"
   fill="none"
   version="1.1"
   id="svg2"
   sodipodi:docname="location.svg"
   inkscape:version="1.4.3 (0d15f75, 2025-12-25)"
   xmlns:inkscape="http://www.inkscape.org/namespaces/inkscape"
   xmlns:sodipodi="http://sodipodi.sourceforge.net/DTD/sodipodi-0.dtd"
   xmlns="http://www.w3.org/2000/svg"
   xmlns:svg="http://www.w3.org/2000/svg">
  <defs
     id="defs2" />
  <sodipodi:namedview
     id="namedview2"
     pagecolor="#ffffff"
     bordercolor="#000000"
     borderopacity="0.25"
     inkscape:showpageshadow="2"
     inkscape:pageopacity="0.0"
     inkscape:pagecheckerboard="0"
     inkscape:deskcolor="#d1d1d1"
     inkscape:zoom="18.931818"
     inkscape:cx="21.973589"
     inkscape:cy="22"
     inkscape:window-width="1920"
     inkscape:window-height="1051"
     inkscape:window-x="-9"
     inkscape:window-y="-9"
     inkscape:window-maximized="1"
     inkscape:current-layer="svg2" />
  <path
     style="baseline-shift:baseline;display:inline;overflow:visible;vector-effect:none;fill:#145fcb;stroke-linecap:round;stroke-linejoin:round;enable-background:accumulate;stop-color:#000000;stop-opacity:1;opacity:1"
     d="M 22,4 C 14.078578,4 7.6660156,10.620877 7.6660156,18.699219 c 0,4.085191 1.8007241,7.706543 4.3105474,11.058593 2.509822,3.352051 5.757185,6.505851 8.947265,9.78711 a 1.50015,1.50015 0 0 0 2.152344,0 c 3.190133,-3.281263 6.437431,-6.435057 8.947265,-9.78711 C 34.533272,26.40576 36.333984,22.78441 36.333984,18.699219 36.333984,10.620879 29.921511,4 22,4 Z m 0,3 c 6.253889,0 11.333984,5.197159 11.333984,11.699219 0,3.205009 -1.408246,6.184367 -3.710937,9.259765 C 27.583784,30.682557 24.836315,33.450572 22,36.347656 19.164071,33.450935 16.41793,30.682248 14.378906,27.958984 12.076224,24.883585 10.666016,21.904227 10.666016,18.699219 10.666016,12.19716 15.746222,7 22,7 Z"
     id="path1" />
  <path
     d="M22.0003 23.8333C25.0379 23.8333 27.5003 21.3709 27.5003 18.3333C27.5003 15.2958 25.0379 12.8333 22.0003 12.8333C18.9628 12.8333 16.5003 15.2958 16.5003 18.3333C16.5003 21.3709 18.9628 23.8333 22.0003 23.8333Z"
     stroke="#145FCB"
     stroke-width="3"
     stroke-linecap="round"
     stroke-linejoin="round"
     id="path2" />
</svg>
