<svg width="33" height="33" viewBox="0 0 33 33" fill="none" xmlns="http://www.w3.org/2000/svg">
<path d="M8.00708 8.2505C8.57766 8.75439 8.9375 9.49142 8.9375 10.3125C8.9375 11.8313 7.70628 13.0625 6.1875 13.0625C5.36642 13.0625 4.62939 12.7027 4.1255 12.1321M8.00708 8.2505C8.16948 8.25 8.34179 8.25 8.525 8.25H24.475C24.6582 8.25 24.8305 8.25 24.9929 8.2505M8.00708 8.2505C6.80422 8.25424 6.14481 8.28565 5.62653 8.54973C5.10908 8.81338 4.68838 9.23408 4.42473 9.75153C4.16065 10.2698 4.12924 10.9292 4.1255 12.1321M4.1255 12.1321C4.125 12.2945 4.125 12.4668 4.125 12.65V20.35C4.125 20.5332 4.125 20.7055 4.1255 20.8679M4.1255 20.8679C4.62939 20.2973 5.36642 19.9375 6.1875 19.9375C7.70628 19.9375 8.9375 21.1687 8.9375 22.6875C8.9375 23.5086 8.57766 24.2456 8.00708 24.7495M4.1255 20.8679C4.12924 22.0708 4.16065 22.7302 4.42473 23.2485C4.68838 23.7659 5.10908 24.1866 5.62653 24.4503C6.14481 24.7143 6.80422 24.7458 8.00708 24.7495M8.00708 24.7495C8.16948 24.75 8.34179 24.75 8.525 24.75H24.475C24.6582 24.75 24.8305 24.75 24.9929 24.7495M28.875 20.8685C28.3711 20.2976 27.6339 19.9375 26.8125 19.9375C25.2937 19.9375 24.0625 21.1687 24.0625 22.6875C24.0625 23.5086 24.4223 24.2456 24.9929 24.7495M28.875 20.8685C28.8755 20.7059 28.875 20.5334 28.875 20.35V12.65C28.875 12.4668 28.875 12.2945 28.8745 12.1321M28.875 20.8685C28.8713 22.071 28.8393 22.7303 28.5753 23.2485C28.3116 23.7659 27.8909 24.1866 27.3735 24.4503C26.8552 24.7143 26.1958 24.7458 24.9929 24.7495M28.8745 12.1321C28.3706 12.7027 27.6336 13.0625 26.8125 13.0625C25.2937 13.0625 24.0625 11.8313 24.0625 10.3125C24.0625 9.49142 24.4223 8.75439 24.9929 8.2505M28.8745 12.1321C28.8708 10.9292 28.8393 10.2698 28.5753 9.75153C28.3116 9.23408 27.8909 8.81338 27.3735 8.54973C26.8552 8.28565 26.1958 8.25424 24.9929 8.2505M19.25 16.5C19.25 18.0188 18.0188 19.25 16.5 19.25C14.9812 19.25 13.75 18.0188 13.75 16.5C13.75 14.9812 14.9812 13.75 16.5 13.75C18.0188 13.75 19.25 14.9812 19.25 16.5Z" stroke="#145FCB" stroke-width="2.25" stroke-linecap="round" stroke-linejoin="round"/>
</svg>
