<svg width="80" height="80" viewBox="0 0 80 80" fill="none" xmlns="http://www.w3.org/2000/svg">
<path d="M79.9966 49.3316C79.9966 50.1949 79.2895 50.9019 78.4263 50.9019H24.3443C24.4849 50.7222 24.6216 50.5386 24.7505 50.3472C25.2974 49.5542 25.7505 48.6831 26.1021 47.7613H78.4221C79.2854 47.7613 79.9924 48.4683 79.9924 49.3316L79.9966 49.3316ZM15.4026 3.1406H78.4256C79.2888 3.1406 79.9958 2.43357 79.9958 1.5703C79.9958 0.70702 79.2888 0 78.4256 0H15.4026C14.5393 0 13.8323 0.70703 13.8323 1.5703C13.8323 2.43358 14.5393 3.1406 15.4026 3.1406ZM48.2306 53.1876L56.9337 68.2616H64.379L55.6758 53.1876H48.2306ZM35.7076 57.4142C36.2115 58.465 36.438 59.6915 36.5513 61.1681L36.5552 61.1915V61.215C36.688 63.5705 36.7349 65.9142 36.7271 68.2619H36.8911L45.5942 53.1879H38.1489L35.7114 57.4145L35.7076 57.4142ZM26.7349 45.4762C27.2036 42.8746 26.8638 40.1285 25.481 37.8981C23.6685 34.9684 20.5787 33.695 17.2193 33.695C17.1138 33.695 17.0083 33.695 16.9028 33.6989L16.9067 5.42891H76.9268V45.4799H26.7387L26.7349 45.4762ZM54.7149 42.0309C59.6915 39.7536 68.9879 39.8004 71.6129 41.0231V14.2611C68.9879 13.0384 59.6908 12.9916 54.7149 15.2689V42.0309ZM44.7696 15.0189L44.9766 15.5228L45.3672 15.6009C46.6953 15.8627 47.6524 17.0267 47.6524 18.3782V21.3235C47.6524 22.679 46.6993 23.8391 45.3672 24.1047L44.9766 24.1829L44.7696 24.6868L44.9922 25.0149C45.7461 26.1399 45.5977 27.6399 44.6407 28.5969L42.5548 30.6828C41.5977 31.6398 40.0978 31.7844 38.9728 31.0343L38.6446 30.8117L38.1407 31.0187L38.0626 31.4093C37.8165 32.6593 36.7774 33.5773 35.5274 33.6827V41.0304C38.1524 39.8077 47.4494 39.7609 52.4254 42.0382V15.2762C50.5192 14.4052 47.9762 13.8739 45.4215 13.62C45.3551 13.995 45.2106 14.3622 44.9879 14.6942L44.7652 15.0224L44.7696 15.0189ZM27.3786 29.1279L28.7263 28.2256L31.4919 29.3701L31.8044 30.9599C31.8551 31.2177 32.0778 31.4013 32.3395 31.4013H35.2848C35.5504 31.4013 35.7692 31.2177 35.82 30.9599L36.1325 29.3701L38.8981 28.2256L40.2458 29.1279C40.4645 29.2763 40.7497 29.2451 40.9372 29.0615L43.0231 26.9756C43.2106 26.7881 43.2379 26.5029 43.0895 26.2842L42.1871 24.9365L43.3316 22.1709L44.9214 21.8584C45.1793 21.8076 45.3629 21.5849 45.3629 21.3232V18.3779C45.3629 18.1123 45.1793 17.8935 44.9214 17.8428L43.3316 17.5303L42.1871 14.7647L43.0895 13.417C43.2379 13.1982 43.2067 12.9131 43.0231 12.7256L40.9372 10.6397C40.7497 10.4522 40.4645 10.4248 40.2458 10.5732L38.8981 11.4756L36.1325 10.3311L35.82 8.74129C35.7692 8.48348 35.5465 8.29988 35.2848 8.29988H32.3395C32.0739 8.29988 31.8551 8.48347 31.8044 8.74129L31.4919 10.3311L28.7263 11.4756L27.3786 10.5732C27.1598 10.4248 26.8746 10.4561 26.6871 10.6397L24.6012 12.7256C24.4137 12.9131 24.3864 13.1982 24.5348 13.417L25.4372 14.7647L24.2927 17.5303L22.7029 17.8428C22.4451 17.8935 22.2615 18.1162 22.2615 18.3779V21.3232C22.2615 21.5888 22.4451 21.8076 22.7029 21.8584L24.2927 22.1709L25.4372 24.9365L24.5348 26.2842C24.3864 26.5029 24.4176 26.7881 24.6012 26.9756L26.6871 29.0615C26.8746 29.249 27.1598 29.2763 27.3786 29.1279ZM33.8122 25.7724C37.0856 25.7724 39.738 23.1201 39.738 19.8466C39.738 16.5732 37.0857 13.9208 33.8122 13.9208C30.5388 13.9208 27.8864 16.5731 27.8864 19.8466C27.8864 23.1161 30.5387 25.7724 33.8122 25.7724ZM17.2182 52.3344C19.2768 52.3383 21.3471 51.2563 22.8666 49.0492C26.183 44.2406 25.1635 35.9752 17.2182 35.9752C9.26895 35.9752 8.24935 44.2408 11.5698 49.0492C13.0932 51.2562 15.1596 52.3383 17.2182 52.3344ZM31.6442 56.4047C30.2809 55.6039 27.902 54.975 25.7301 54.4203L21.566 53.3969C20.2808 54.1703 18.8121 54.6235 17.2222 54.6235C15.6324 54.6235 14.1636 54.1743 12.8784 53.3969L8.71425 54.4203C6.54235 54.975 4.15955 55.6078 2.80015 56.4047C1.02285 57.4438 0.389953 58.5102 0.171253 61.3383C-0.102187 66.3383 -0.0123366 70.9828 0.190784 75.7603C0.292344 78.1275 2.24158 79.9986 4.61268 79.9986H5.70648V67.7876C5.70648 67.1548 6.2182 66.6431 6.85098 66.6431C7.48379 66.6431 7.99549 67.1548 7.99549 67.7876V79.9986H26.4685V67.7876C26.4685 67.1548 26.9802 66.6431 27.613 66.6431C28.2458 66.6431 28.7575 67.1548 28.7575 67.7876V79.9986H29.8513C32.2224 79.9986 34.1716 78.1314 34.2732 75.7603C34.4763 70.983 34.5662 66.3384 34.2927 61.3383C34.074 58.5102 33.4412 57.4438 31.6638 56.4047H31.6442ZM68.3001 35.3497C68.9291 35.4122 69.4876 34.9513 69.5462 34.3224C69.6087 33.6935 69.1478 33.1349 68.519 33.0763C65.1635 32.7482 61.5151 33.0138 57.667 33.8615C57.0498 33.9982 56.6591 34.6075 56.7959 35.2209C56.9131 35.756 57.3857 36.1193 57.9092 36.1193C57.9912 36.1193 58.0732 36.1076 58.1553 36.092C61.7647 35.2951 65.1786 35.0451 68.2923 35.3498L68.3001 35.3497ZM57.9132 22.4517C57.9913 22.4517 58.0694 22.4439 58.1475 22.4283C61.7686 21.6744 65.1748 21.4751 68.2765 21.8384C68.9015 21.9126 69.4718 21.4595 69.5421 20.8345C69.6163 20.2056 69.1671 19.6392 68.5382 19.5689C65.1944 19.1783 61.5421 19.3892 57.6792 20.1939C57.062 20.3228 56.6636 20.9283 56.7925 21.5455C56.9058 22.0846 57.3785 22.4557 57.9097 22.4557L57.9132 22.4517ZM57.9132 31.5181C57.9913 31.5181 58.0733 31.5103 58.1553 31.4908C61.7686 30.7095 65.1787 30.4752 68.2923 30.7993C68.9212 30.8658 69.4798 30.4087 69.5462 29.7798C69.6126 29.1509 69.1556 28.5923 68.5267 28.5259C65.1751 28.1783 61.5228 28.4244 57.6717 29.2564C57.0546 29.3892 56.6639 29.9986 56.7967 30.6158C56.9139 31.151 57.3858 31.5181 57.9132 31.5181ZM57.9132 27.0533C57.9913 27.0533 58.0694 27.0455 58.1514 27.0299C61.7686 26.2642 65.1787 26.0455 68.2844 26.3853C68.9133 26.4517 69.4758 26.0025 69.5461 25.3736C69.6164 24.7447 69.1633 24.1822 68.5344 24.1119C65.1867 23.7447 61.5344 23.9713 57.6794 24.7916C57.0622 24.9244 56.6677 25.526 56.7966 26.1471C56.9099 26.6862 57.3865 27.0495 57.9138 27.0495L57.9132 27.0533Z" fill="white"/>
</svg>
