<svg width="80" height="80" viewBox="0 0 80 80" fill="none" xmlns="http://www.w3.org/2000/svg">
<path d="M3.328 42.9683C3.05066 42.9683 2.77722 42.9878 2.51159 43.0269V30.4999C2.51159 28.664 4.00769 27.1718 5.83969 27.1718H15.2928C16.5155 27.1718 17.5662 27.7773 18.1756 28.8359L19.6522 31.3906H43.5932C45.4291 31.3906 46.9213 32.8867 46.9213 34.7187V38.332C46.6557 38.2929 46.3822 38.2734 46.1049 38.2734H42.1557V36.5312C42.1557 36.2187 41.9018 35.9648 41.5893 35.9648L7.83127 35.9609C7.51877 35.9609 7.26486 36.2148 7.26486 36.5273V42.9648H3.32736L3.328 42.9683ZM49.433 54.6833V43.8863C49.433 42.0504 47.9369 40.5582 46.1049 40.5582H34.9919C33.7692 40.5582 32.7185 41.1637 32.1091 42.2223L30.3591 45.2535H3.3281C1.4922 45.2535 0 46.7496 0 48.5816V68.7456C0 70.5815 1.4961 72.0737 3.3281 72.0737H37.1371V61.0577C37.1371 57.546 40.0082 54.6749 43.5199 54.6749H49.434L49.433 54.6833ZM65.761 61.0661V75.8471C65.761 78.101 63.9172 79.9448 61.6633 79.9448H43.5153C41.2614 79.9448 39.4176 78.101 39.4176 75.8471V61.0661C39.4176 58.8122 41.2614 56.9684 43.5153 56.9684H61.6633C63.9172 56.9684 65.761 58.8122 65.761 61.0661ZM53.839 68.4567L58.5382 64.7067C58.8312 64.8356 59.1554 64.902 59.4952 64.902C60.8311 64.902 61.9132 63.82 61.9132 62.484C61.9132 61.1481 60.8312 60.066 59.4952 60.066C58.1593 60.066 57.0772 61.148 57.0772 62.484C57.0772 62.6325 57.0929 62.7809 57.1163 62.9254L51.6163 67.316H47.8194C47.4131 66.5543 46.6085 66.0387 45.6866 66.0387C44.3507 66.0387 43.2686 67.1207 43.2686 68.4567C43.2686 69.7927 44.3506 70.8747 45.6866 70.8747C46.6085 70.8747 47.4132 70.3591 47.8194 69.5974H51.6163L57.1163 73.988C57.089 74.1325 57.0772 74.2771 57.0772 74.4294C57.0772 75.7653 58.1592 76.8474 59.4952 76.8474C60.8311 76.8474 61.9132 75.7654 61.9132 74.4294C61.9132 73.0935 60.8312 72.0114 59.4952 72.0114C59.1554 72.0114 58.8312 72.0817 58.5382 72.2067L53.839 68.4567ZM11.546 18.8787V4.0977C11.546 1.8438 13.3898 0 15.6437 0H33.7917C36.0456 0 37.8894 1.8438 37.8894 4.0977V18.8787C37.8894 21.1326 36.0456 22.9764 33.7917 22.9764H15.6437C13.3898 22.9764 11.546 21.1326 11.546 18.8787ZM20.5812 16.074C20.5812 16.5506 20.8195 16.9607 21.2296 17.199C21.6437 17.4373 22.1164 17.4373 22.5304 17.199L30.4757 12.6092C30.8898 12.3709 31.1242 11.9608 31.1242 11.4842C31.1242 11.0076 30.8859 10.5975 30.4757 10.3592L22.5304 5.7694C22.1164 5.53112 21.6437 5.53112 21.2296 5.7694C20.8156 6.00768 20.5812 6.41784 20.5812 6.8944V16.074ZM59.0152 20.5896L50.1441 13.3162V28.1252C50.1441 28.2111 50.148 28.2971 50.1597 28.3791L59.0152 20.5896ZM65.4371 22.3162L79.3081 10.9412C79.0854 10.7459 78.8198 10.6014 78.5308 10.5154H51.6168C51.3277 10.5975 51.0621 10.7459 50.8394 10.9412L64.7104 22.3162C64.9174 22.4881 65.2262 22.4881 65.4371 22.3162ZM71.1324 20.5896L79.9879 28.3787C79.9996 28.2967 80.0035 28.2107 80.0035 28.1248V13.3158L71.1324 20.5896ZM66.8824 24.074C66.3512 24.5115 65.7105 24.7302 65.0738 24.7302C64.4371 24.7302 63.8004 24.5115 63.2652 24.074L60.8043 22.0545L51.691 30.0701H78.453L69.3397 22.0545L66.8788 24.074H66.8824Z" fill="white"/>
</svg>
